<?xml version="1.0" encoding="UTF-8"?>
<svg width="60" height="60" viewBox="0 0 60 60" fill="none" xmlns="http://www.w3.org/2000/svg">
  <!-- Background with rounded corners -->
  <rect width="60" height="60" rx="16" fill="#8B5CF6"/>
  
  <!-- Speech bubble shape -->
  <path d="M12 18h32c2.5 0 4.5 2 4.5 4.5v18c0 2.5-2 4.5-4.5 4.5H25l-6 6v-6h-7c-2.5 0-4.5-2-4.5-4.5v-18c0-2.5 2-4.5 4.5-4.5z" fill="white" opacity="0.9"/>
  
  <!-- Infinity symbol -->
  <path d="M20 30c0-2.5 2-4.5 4.5-4.5 1.5 0 2.8 0.7 3.5 1.8 0.7-1.1 2-1.8 3.5-1.8 2.5 0 4.5 2 4.5 4.5s-2 4.5-4.5 4.5c-1.5 0-2.8-0.7-3.5-1.8-0.7 1.1-2 1.8-3.5 1.8-2.5 0-4.5-2-4.5-4.5zm4.5-2c-1.1 0-2 0.9-2 2s0.9 2 2 2c0.8 0 1.5-0.5 1.8-1.2l0.7-0.8-0.7-0.8c-0.3-0.7-1-1.2-1.8-1.2zm7 0c0.8 0 1.5 0.5 1.8 1.2l0.7 0.8-0.7 0.8c-0.3 0.7-1 1.2-1.8 1.2-1.1 0-2-0.9-2-2s0.9-2 2-2z" fill="#8B5CF6"/>
  
  <!-- "8" badge -->
  <circle cx="48" cy="12" r="8" fill="#EF4444"/>
  <text x="48" y="17" text-anchor="middle" fill="white" font-family="Arial Black" font-size="10" font-weight="900">8</text>
</svg>
